<?xml version="1.0" encoding="UTF-8" standalone="no"?>
<svg width="800px" height="400px" viewBox="0 0 800 400" version="1.1" xmlns="http://www.w3.org/2000/svg" xmlns:xlink="http://www.w3.org/1999/xlink" xmlns:sketch="http://www.bohemiancoding.com/sketch/ns">
    <title>Feature Image</title>
    <description>Created with Sketch (http://www.bohemiancoding.com/sketch)</description>
    <defs></defs>
    <g id="Page 1" stroke="none" stroke-width="1" fill="none" fill-rule="evenodd" sketch:type="MSPage">
        <g id="Feature Image" sketch:type="MSArtboardGroup">
            <rect d="M0,0 L0,400 L800,400 L800,0 L0,0 Z M0,0" id="Rectangle 1" sketch:type="MSShapeGroup" x="0" y="0" width="800" height="400"></rect>
            <g id="Group copy" sketch:type="MSLayerGroup" transform="translate(300.000000, 125.000000)">
                <polygon d="M50,0 L100,50 L0,50 L50,0 Z M50,0" id="Triangle 1" fill="#9BD2F1" sketch:type="MSShapeGroup" points="50 0 100 50 0 50 "></polygon>
                <polygon d="M100,0 L150,50 L50,50 L100,0 Z M100,0" id="Triangle 1 copy" fill="#56B2E7" sketch:type="MSShapeGroup" transform="translate(100.000000, 25.000000) scale(1, -1) translate(-100.000000, -25.000000) " points="100 0 150 50 50 50 "></polygon>
                <polygon d="M100,50 L150,100 L50,100 L100,50 Z M100,50" id="Triangle 1 copy 2" fill="#9BD2F1" sketch:type="MSShapeGroup" points="100 50 150 100 50 100 "></polygon>
                <polygon d="M150,0 L200,50 L100,50 L150,0 Z M150,0" id="Triangle 1 copy" fill="#9BD2F1" sketch:type="MSShapeGroup" points="150 0 200 50 100 50 "></polygon>
                <polygon d="M100,100 L150,150 L50,150 L100,100 Z M100,100" id="Triangle 1 copy 2" fill="#9BD2F1" sketch:type="MSShapeGroup" transform="translate(100.000000, 125.000000) scale(1, -1) translate(-100.000000, -125.000000) " points="100 100 150 150 50 150 "></polygon>
                <polygon d="M100,50 L200,150 L0,150 L100,50 Z M100,50" id="Triangle 1 copy 3" fill="#9BD2F1" sketch:type="MSShapeGroup" transform="translate(100.000000, 100.000000) scale(1, -1) translate(-100.000000, -100.000000) " points="100 50 200 150 0 150 "></polygon>
                <polygon d="M100,100 L150,150 L50,150 L100,100 Z M100,100" id="Triangle 1 copy" opacity="0.721732955" fill="#79C1EC" sketch:type="MSShapeGroup" transform="translate(100.000000, 125.000000) scale(1, -1) translate(-100.000000, -125.000000) " points="100 100 150 150 50 150 "></polygon>
                <polygon d="M100,50 L150,100 L50,100 L100,50 Z M100,50" id="Triangle 1 copy 2" opacity="0.234659091" fill="#FFFFFF" sketch:type="MSShapeGroup" points="100 50 150 100 50 100 "></polygon>
                <polygon d="M100,50 L150,150 L50,150 L100,50 Z M100,50" id="Triangle 1 copy 4" fill="#56B2E7" sketch:type="MSShapeGroup" transform="translate(100.000000, 100.000000) scale(1, -1) translate(-100.000000, -100.000000) " points="100 50 150 150 50 150 "></polygon>
                <path d="M75,100 L125,100 L100,150 L75,100 Z M75,100" id="Triangle 1 copy 5" opacity="0.642755682" fill="#0596DE" sketch:type="MSShapeGroup"></path>
                <polygon d="M100,50 L150,100 L50,100 L100,50 Z M100,50" id="Triangle 1 copy 2" opacity="0.277769886" fill="#50B9F3" sketch:type="MSShapeGroup" points="100 50 150 100 50 100 "></polygon>
                <polygon d="M150,0 L200,50 L100,50 L150,0 Z M150,0" id="Triangle 1 copy 4" opacity="0.75390625" fill="#0596DE" sketch:type="MSShapeGroup" points="150 0 200 50 100 50 "></polygon>
                <polygon d="M50,0 L100,50 L0,50 L50,0 Z M50,0" id="Triangle 1 copy 3" opacity="0.75" fill="#0596DE" sketch:type="MSShapeGroup" points="50 0 100 50 0 50 "></polygon>
                <polygon d="M100,0 L150,50 L50,50 L100,0 Z M100,0" id="Triangle 1 copy" opacity="0.7" fill="#9BD2F1" sketch:type="MSShapeGroup" points="100 0 150 50 50 50 "></polygon>
            </g>
        </g>
    </g>
</svg>